<?xml version="1.0" standalone="no"?>
<!DOCTYPE svg PUBLIC "-//W3C//DTD SVG 20010904//EN"
 "http://www.w3.org/TR/2001/REC-SVG-20010904/DTD/svg10.dtd">
<svg version="1.0" xmlns="http://www.w3.org/2000/svg"
 width="32.000000pt" height="32.000000pt" viewBox="0 0 32.000000 32.000000"
 preserveAspectRatio="xMidYMid meet">

<g transform="translate(0.000000,32.000000) scale(0.100000,-0.100000)"
fill="#000000" stroke="none">
<path d="M25 295 c-24 -23 -25 -31 -25 -135 0 -104 1 -112 25 -135 23 -24 31
-25 135 -25 104 0 112 1 135 25 24 23 25 31 25 135 0 104 -1 112 -25 135 -23
24 -31 25 -135 25 -104 0 -112 -1 -135 -25z m148 -102 c5 -8 16 -11 27 -8 10
3 22 0 26 -6 4 -8 3 -9 -4 -5 -7 4 -12 1 -12 -8 0 -22 -13 -20 -28 4 -7 12
-17 18 -22 15 -5 -3 -11 -1 -15 5 -9 15 -25 3 -36 -28 -8 -20 -12 -23 -18 -13
-5 8 -14 10 -22 6 -8 -4 2 8 21 27 36 36 66 40 83 11z m84 -70 c29 -11 -105
-33 -157 -26 l-45 6 50 13 c58 14 126 17 152 7z"/>
</g>
</svg>
